<?xml version="1.0" encoding="utf-8"?>
<!-- Generator: Adobe Illustrator 26.0.1, SVG Export Plug-In . SVG Version: 6.00 Build 0)  -->
<svg version="1.1" id="Layer_1" xmlns="http://www.w3.org/2000/svg" xmlns:xlink="http://www.w3.org/1999/xlink" x="0px" y="0px"
	 viewBox="0 0 45.75 40.85" style="enable-background:new 0 0 45.75 40.85;" xml:space="preserve">
<style type="text/css">
	.st0{fill:#FFFFFF;}
</style>
<path d="M1.88-281.08"/>
<path d="M14.67-1.26"/>
<path d="M36.29,38.9H9.46c-4.56,0-8.25-3.69-8.25-8.25V10.31c0-4.56,3.69-8.25,8.25-8.25h26.82c4.56,0,8.25,3.69,8.25,8.25v20.34
	C44.54,35.21,40.84,38.9,36.29,38.9z"/>
<path class="st0" d="M22.95,18.88c0.86-0.82-0.26-2.12,0.14-4.39c0.42-2.41,2.28-4.51,4.3-5.33c0.13-0.05,1.12-0.21,3.09-0.53
	c3.2-0.52,3.87-0.57,4.3-0.13c0.35,0.36,0.18,0.71,0.27,2.66c0.12,2.6,0.46,2.74,0.17,3.17c-1,1.5-4.95-0.35-6.26,1.43
	c-0.37,0.5-0.46,1.19-0.51,1.52c-0.06,0.45-0.23,1.67,0.43,2.26c0.33,0.3,0.77,0.34,1.88,0.27c2.89-0.19,3.54-0.69,4.03-0.27
	c0.55,0.47-0.09,1.27,0,3.73c0.07,1.76,0.44,2.42,0,2.8c-0.44,0.38-1.05-0.06-3.09-0.27c-1.37-0.14-2.2-0.21-2.68,0.27
	c-0.52,0.51-0.37,1.41-0.27,2.13c0.5,3.5,0.49,7.1,0.22,9.21c-0.07,0.53-0.36,2.64-0.36,2.64l0,0c0,0-0.57,0.08-1.73,0.25
	c-1.93,0.28-3.78,0.55-3.78,0.55l0,0c0,0,0.42-4.14,0-8.52c-0.16-1.73-0.33-2.16-0.27-3.46c0.08-1.69,0.43-2.36,0-2.8
	c-0.81-0.82-2.88,0.68-3.89-0.27c-0.31-0.29-0.38-0.72-0.54-1.6c-0.04-0.22-0.17-1.06,0-2.26c0.18-1.23,0.27-1.84,0.67-2.26
	C20.12,18.57,21.98,19.81,22.95,18.88z"/>
</svg>
