<?xml version="1.0" encoding="utf-8"?>
<!-- Generator: Adobe Illustrator 26.0.1, SVG Export Plug-In . SVG Version: 6.00 Build 0)  -->
<svg version="1.1" xmlns="http://www.w3.org/2000/svg" xmlns:xlink="http://www.w3.org/1999/xlink" x="0px" y="0px"
	 viewBox="0 0 648 432" style="enable-background:new 0 0 648 432;" xml:space="preserve">
<style type="text/css">
	.st0{fill:none;}
	.st1{fill:#EE416E;}
	.st2{font-family:'PalatinoLinotype-Roman';}
	.st3{font-size:13.9763px;}
	.st4{display:none;}
	.st5{display:inline;}
	.st6{fill:#EB8D8D;}
	.st7{display:inline;fill:none;stroke:#EB8D8D;stroke-width:4;stroke-miterlimit:10;}
	.st8{fill:#F9F9F9;}
	.st9{fill:#FFFFFF;}
	.st10{font-family:'Harrington';}
	.st11{font-size:282.412px;}
	.st12{font-size:203.3367px;}
	.st13{font-size:16.7715px;}
</style>
<g id="Background_xA0_Image_00000149365282052457914620000016063699057932316828_">
</g>
<g id="Group_1_00000055669250908535999510000004675076689927649172_">
	<g id="Serve_00000073001740568905530200000010757892450141483951_">
		<rect x="245.33" y="299.23" class="st0" width="38.98" height="16.29"/>
		<text transform="matrix(1 0 0 1 245.3267 309.3354)" class="st1 st2 st3">Serve</text>
	</g>
	<g id="Layer_8" class="st4">
		<g class="st5">
			<g>
				<path class="st6" d="M337.41,219.33c11.23-11.66,28.8-4.52,41.06,1.42c1.15,0.56,2.17-1.17,1.01-1.73
					c-13.12-6.36-31.53-13.52-43.48-1.1C335.1,218.85,336.52,220.26,337.41,219.33L337.41,219.33z"/>
			</g>
		</g>
		<g class="st5">
			<g>
				<path class="st6" d="M370.62,218.86c11.15,10.4,14.08,26.2,12.11,40.81c-0.17,1.26,1.76,1.8,1.93,0.53
					c2.07-15.31-0.91-31.84-12.62-42.75C371.09,216.57,369.68,217.98,370.62,218.86L370.62,218.86z"/>
			</g>
		</g>
		<g class="st5">
			<g>
				<path class="st6" d="M372.77,269.94c-2.78,2.25-5.57,4.49-8.35,6.73c-0.42,0.34-0.35,1.06,0,1.41c0.42,0.42,0.99,0.34,1.41,0
					c2.79-2.24,5.57-4.48,8.35-6.73c0.42-0.34,0.35-1.06,0-1.41C373.77,269.52,373.19,269.6,372.77,269.94L372.77,269.94z"/>
			</g>
		</g>
		<g class="st5">
			<g>
				<path class="st6" d="M370.98,219.57c11.27,10.35,10.43,26.58,10.44,40.6c0,1.29,2,1.29,2,0c-0.01-14.58,0.67-31.27-11.03-42.02
					C371.45,217.29,370.03,218.7,370.98,219.57L370.98,219.57z"/>
			</g>
		</g>
		<g class="st5">
			<g>
				<path class="st6" d="M381.57,261.13c1.29,0,1.29-2,0-2C380.29,259.13,380.28,261.13,381.57,261.13L381.57,261.13z"/>
			</g>
		</g>
		<g class="st5">
			<g>
				<path class="st6" d="M317.23,224.51c-5.24,0.4-9.94,3.22-12.41,7.92c-2.45,4.66-2.38,10.15-0.24,14.9
					c0.53,1.17,2.25,0.16,1.73-1.01c-1.83-4.06-1.85-8.9,0.24-12.88c2.13-4.06,6.13-6.58,10.69-6.93
					C318.51,226.41,318.52,224.41,317.23,224.51L317.23,224.51z"/>
			</g>
		</g>
		<g class="st5">
			<g>
				<path class="st6" d="M303.01,247.8c1.96,3.89,6.78,5.47,10.44,7.25c2.2,1.07,4.27,2.15,6.72,2.46c2.56,0.31,5.15,0.46,7.72,0.68
					c1.28,0.11,1.28-1.89,0-2c-2.22-0.19-4.44-0.36-6.66-0.57c-2.52-0.23-4.53-1.2-6.77-2.29c-3.28-1.6-7.97-3.05-9.72-6.54
					C304.16,245.65,302.43,246.66,303.01,247.8L303.01,247.8z"/>
			</g>
		</g>
		<g class="st5">
			<g>
				<path class="st6" d="M305.05,248.72c0.64,0.82,1.32,1.6,2.3,2.01c1.1,0.46,2.41,0.37,3.57,0.6c2.7,0.53,5.25,1.62,7.83,2.56
					c5.42,1.97,11.14,3.15,16.72,4.55c1.25,0.31,1.78-1.62,0.53-1.93c-5.29-1.33-10.7-2.45-15.86-4.25c-2.38-0.83-4.7-1.84-7.14-2.5
					c-1.19-0.32-2.39-0.53-3.62-0.66c-1.41-0.15-2.07-0.71-2.92-1.8C305.67,246.3,304.26,247.72,305.05,248.72L305.05,248.72z"/>
			</g>
		</g>
		<g class="st5">
			<g>
				<path class="st6" d="M358.64,270.9c1.65,2.49,2.6,5.35,2.57,8.35c-0.01,1.29,1.99,1.29,2,0c0.04-3.33-1.01-6.59-2.84-9.36
					c-0.3-0.45-0.88-0.64-1.37-0.36C358.55,269.79,358.34,270.44,358.64,270.9L358.64,270.9z"/>
			</g>
		</g>
		<g class="st5">
			<g>
				<path class="st6" d="M381.38,258.2c-0.53,2.86-2.34,5.16-4.32,7.2c-2.11,2.16-4.39,4.16-6.05,6.72
					c-0.7,1.08,1.03,2.09,1.73,1.01c3.24-5.01,9.42-8.11,10.57-14.39C383.53,257.48,381.61,256.94,381.38,258.2L381.38,258.2z"/>
			</g>
		</g>
		<g class="st5">
			<g>
				<path class="st6" d="M369.66,217.72c1.29,0,1.29-2,0-2C368.37,215.72,368.37,217.72,369.66,217.72L369.66,217.72z"/>
			</g>
		</g>
		<g class="st5">
			<g>
				<path class="st6" d="M368.68,216.99c0.12,0.33,0.26,0.65,0.46,0.94c0.2,0.28,0.42,0.55,0.7,0.77c0.09,0.1,0.2,0.17,0.32,0.21
					c0.12,0.06,0.25,0.09,0.39,0.09c0.14,0.01,0.27-0.02,0.39-0.09c0.12-0.04,0.23-0.11,0.32-0.21c0.17-0.19,0.3-0.44,0.29-0.71
					c-0.01-0.09-0.02-0.18-0.04-0.27c-0.05-0.17-0.13-0.32-0.26-0.44c-0.18-0.14-0.34-0.3-0.48-0.48c0.05,0.07,0.1,0.13,0.16,0.2
					c-0.15-0.2-0.28-0.41-0.37-0.64c0.03,0.08,0.07,0.16,0.1,0.24c-0.02-0.05-0.04-0.1-0.06-0.15c-0.03-0.13-0.09-0.24-0.18-0.34
					c-0.07-0.11-0.16-0.19-0.28-0.26c-0.11-0.07-0.24-0.11-0.37-0.12c-0.13-0.03-0.27-0.02-0.4,0.02c-0.24,0.08-0.48,0.23-0.6,0.46
					C368.66,216.45,368.59,216.74,368.68,216.99L368.68,216.99z"/>
			</g>
		</g>
		<g class="st5">
			<g>
				<path class="st6" d="M368.19,216.63c1.29,0,1.29-2,0-2C366.9,214.63,366.9,216.63,368.19,216.63L368.19,216.63z"/>
			</g>
		</g>
		<g class="st5">
			<g>
				<path class="st6" d="M316.79,224.03c-5.57,0.46-12.07,4.64-13.37,10.34c-0.67,2.94-0.67,6.09,0.87,8.73
					c1.77,3.04,2.65,6.37,3.47,9.76c0.3,1.25,2.23,0.72,1.93-0.53c-0.65-2.68-1.32-5.36-2.44-7.88c-0.61-1.37-1.68-2.65-2.05-4.09
					c-0.32-1.26-0.2-2.77-0.07-4.06c0.29-2.82,1.64-5.09,3.86-6.83c2.19-1.72,5-3.21,7.8-3.44
					C318.06,225.92,318.07,223.92,316.79,224.03L316.79,224.03z"/>
			</g>
		</g>
		<g class="st5">
			<g>
				<path class="st6" d="M305.28,244.98c1.3,3.76,5.64,4.85,8.98,6.08c4.39,1.63,8.75,3.41,13.43,3.93c1.28,0.14,1.27-1.86,0-2
					c-4.07-0.46-7.92-2.01-11.73-3.43c-1.78-0.66-3.62-1.24-5.34-2.04c-1.42-0.66-2.88-1.53-3.42-3.09
					C306.8,243.24,304.86,243.76,305.28,244.98L305.28,244.98z"/>
			</g>
		</g>
		<g class="st5">
			<g>
				<path class="st6" d="M327.9,255.58c3.25,2.27,6.75,4.12,10.45,5.55c0.5,0.2,1.1-0.22,1.23-0.7c0.16-0.57-0.19-1.03-0.7-1.23
					c-3.53-1.37-6.87-3.18-9.97-5.35c-0.44-0.31-1.11-0.08-1.37,0.36C327.25,254.71,327.46,255.27,327.9,255.58L327.9,255.58z"/>
			</g>
		</g>
		<g class="st5">
			<g>
				<path class="st6" d="M327.06,254.93c6.38,1.74,12.65,4.59,18.25,8.11c2.38,1.5,4.36,3.48,7.04,4.46
					c2.52,0.92,5.41,1.21,7.47,3.07c0.95,0.86,2.37-0.55,1.41-1.41c-2.02-1.82-4.58-2.41-7.11-3.18c-1.38-0.42-2.68-0.94-3.85-1.8
					c-1.32-0.97-2.57-1.99-3.96-2.87c-5.73-3.61-12.19-6.53-18.72-8.31C326.35,252.66,325.82,254.59,327.06,254.93L327.06,254.93z"
					/>
			</g>
		</g>
		<g class="st5">
			<g>
				<path class="st6" d="M363.53,274.53c-1.45-2.28-2.78-4.76-4.66-6.72c-1.95-2.03-4.66-3.18-7.11-4.48
					c-5.22-2.78-10.28-5.94-16.23-6.79c-1.26-0.18-1.8,1.75-0.53,1.93c5.63,0.8,10.37,3.73,15.31,6.36c2.28,1.22,4.96,2.27,6.84,4.1
					c1.92,1.86,3.23,4.37,4.65,6.61C362.49,276.62,364.22,275.62,363.53,274.53L363.53,274.53z"/>
			</g>
		</g>
		<g class="st5">
			<g>
				<path class="st6" d="M382.02,252.34c-0.5,2.77-1.61,5.34-2.79,7.88c-1.08,2.34-2.28,4.42-4.11,6.25
					c-3.32,3.33-7.49,5.65-10.95,8.82c-0.95,0.87,0.47,2.28,1.41,1.41c3.63-3.33,8.06-5.72,11.44-9.33
					c1.76-1.88,2.95-4.02,4.01-6.34c1.21-2.64,2.38-5.3,2.9-8.17C384.18,251.62,382.25,251.08,382.02,252.34L382.02,252.34z"/>
			</g>
		</g>
		<g class="st5">
			<g>
				<path class="st6" d="M370.24,216.62c-1.17-1.39-3-1.93-4.68-2.44c-2.08-0.64-4.21-1.1-6.37-1.4c-3.84-0.53-7.91-0.72-11.45,1.12
					c-1.14,0.6-0.13,2.32,1.01,1.73c3.13-1.63,6.91-1.35,10.3-0.86c1.83,0.26,3.64,0.66,5.41,1.17c1.52,0.44,3.31,0.84,4.37,2.1
					C369.66,219.02,371.06,217.6,370.24,216.62L370.24,216.62z"/>
			</g>
		</g>
		<g class="st5">
			<g>
				<path class="st6" d="M354.53,211.34c-1.57-0.01-3.15,0.18-4.67,0.6c-1.51,0.41-2.83,1.14-4.26,1.75
					c-1.37,0.58-2.72,0.71-3.92,1.68c-1.25,1.01-2.39,2.19-3.57,3.29c-0.94,0.88,0.47,2.29,1.41,1.41c1.05-0.98,2.08-1.99,3.16-2.94
					c1.09-0.96,2.39-1.06,3.68-1.61c1.3-0.56,2.51-1.23,3.89-1.61c1.4-0.4,2.83-0.57,4.28-0.57
					C355.81,213.35,355.81,211.35,354.53,211.34L354.53,211.34z"/>
			</g>
		</g>
		<g class="st5">
			<g>
				<path class="st6" d="M346.86,214.27c-1.01,0.07-2.29-0.04-3.16,0.55c-0.42,0.28-0.75,0.68-1.13,1.02
					c-0.32,0.29-0.65,0.56-0.99,0.82c-1.36,1.07-2.86,2.11-3.73,3.68c-0.62,1.13,1.1,2.14,1.73,1.01c0.72-1.3,2.01-2.19,3.17-3.09
					c0.64-0.5,1.24-1.02,1.82-1.58c0.24-0.23,0.42-0.28,0.74-0.3c0.52-0.04,1.03-0.07,1.55-0.11c0.54-0.04,1-0.43,1-1
					C347.86,214.76,347.41,214.23,346.86,214.27L346.86,214.27z"/>
			</g>
		</g>
		<g class="st5">
			<g>
				<path class="st6" d="M318.07,224.88c-2.24,0.44-4.48,1.07-6.47,2.23c-2.01,1.17-3.51,2.91-4.87,4.76c-1.31,1.78-2.46,3.8-2.83,6
					c-0.42,2.47,0.3,4.8,1.14,7.11c0.44,1.2,2.37,0.68,1.93-0.53c-0.72-1.98-1.48-4.06-1.11-6.2c0.35-1.99,1.43-3.77,2.6-5.37
					c1.22-1.66,2.59-3.19,4.42-4.2c1.77-0.97,3.75-1.48,5.72-1.87C319.86,226.56,319.33,224.63,318.07,224.88L318.07,224.88z"/>
			</g>
		</g>
		<g class="st5">
			<g>
				<path class="st6" d="M332.64,257.48c6.04,0.52,12.14,1.18,17.27,4.69c4.62,3.16,7.99,7.84,11.12,12.39
					c0.72,1.05,2.46,0.06,1.73-1.01c-3.34-4.86-6.92-9.74-11.84-13.11c-5.41-3.71-11.91-4.42-18.28-4.97
					C331.36,255.37,331.36,257.37,332.64,257.48L332.64,257.48z"/>
			</g>
		</g>
		<g class="st5">
			<g>
				<path class="st6" d="M365.52,273.4c5.28-3.6,10.61-7.36,14.29-12.69c3.45-5,5.07-11.44,2.91-17.29
					c-0.44-1.2-2.38-0.68-1.93,0.53c2.05,5.54,0.38,11.43-2.95,16.09c-3.46,4.86-8.47,8.31-13.33,11.63
					C363.45,272.39,364.45,274.13,365.52,273.4L365.52,273.4z"/>
			</g>
		</g>
		<g class="st5">
			<g>
				<path class="st6" d="M377.8,262.91c3.57-5.92,7.54-13.4,5.09-20.4c-0.55-1.57-1.09-2.65-1.4-4.36
					c-0.58-3.23-0.71-6.54-0.84-9.81c-0.05-1.28-2.05-1.29-2,0c0.18,4.49,0.13,9.48,1.91,13.69c0.65,1.54,1.13,3.2,1.17,4.88
					c0.05,1.84-0.49,3.58-1.06,5.31c-1.11,3.4-2.77,6.62-4.61,9.68C375.41,263.01,377.14,264.02,377.8,262.91L377.8,262.91z"/>
			</g>
		</g>
		<g class="st5">
			<g>
				<path class="st6" d="M343.4,217.14c-1.47,0.72-2.89,1.53-4.27,2.43c-0.44,0.28-0.66,0.9-0.36,1.37c0.28,0.44,0.9,0.66,1.37,0.36
					c1.37-0.89,2.8-1.7,4.27-2.43c0.47-0.23,0.64-0.94,0.36-1.37C344.46,217.02,343.91,216.9,343.4,217.14L343.4,217.14z"/>
			</g>
		</g>
		<g class="st5">
			<g>
				<path class="st6" d="M370.45,216.35c-5.76-2.57-11.91-4.2-18.16-2.42c-1.24,0.35-0.71,2.28,0.53,1.93
					c5.7-1.62,11.36-0.13,16.62,2.22C370.6,218.6,371.62,216.88,370.45,216.35L370.45,216.35z"/>
			</g>
		</g>
		<path class="st7" d="M352.32,260.91c3.38,3.16,6.38,10.06,11.1,11.35c3.4,0.93,7.34-3.61,9.76-5.39"/>
		<path class="st7" d="M319.16,226.8c-6.26,2.5-17.39,5.5-14.63,15.01c2.14,7.37,13.84,10.2,20.18,11.76
			c5.03,1.24,10.2,2.1,15.38,2.42"/>
	</g>
	<g id="Layer_9">
		<g>
			<g>
				<path class="st8" d="M340.08,222.44c1.62-0.78,3.22-1.59,4.87-2.31c0.25-0.11,0.3-0.47,0.18-0.68
					c-0.15-0.26-0.44-0.29-0.68-0.18c-1.65,0.72-3.25,1.53-4.87,2.31c-0.24,0.12-0.31,0.46-0.18,0.68
					C339.55,222.51,339.84,222.56,340.08,222.44L340.08,222.44z"/>
			</g>
		</g>
		<g>
			<g>
				<path class="st8" d="M352.78,218.03c3.59-0.35,7.5,0.01,10.28,2.56c0.47,0.43,1.18-0.27,0.71-0.71
					c-2.98-2.73-7.11-3.23-10.98-2.85C352.15,217.09,352.14,218.09,352.78,218.03L352.78,218.03z"/>
			</g>
		</g>
		<g>
			<g>
				<path class="st8" d="M319.27,229.54c-4.08-0.21-8.04,1.85-10.15,5.37c-0.96,1.6-1.67,3.62-1.58,5.51
					c0.05,1.09,0.73,1.77,1.22,2.69c0.46,0.87,1,1.54,1.91,1.96c1.05,0.49,2.23,0.66,3.35,0.9c1.4,0.3,2.8,0.6,4.21,0.91
					c0.63,0.14,0.9-0.83,0.27-0.96c-2.03-0.44-4.07-0.83-6.08-1.32c-0.81-0.2-1.69-0.46-2.26-1.11c-0.32-0.37-0.5-0.85-0.75-1.27
					c-0.22-0.36-0.51-0.68-0.69-1.06c-0.39-0.81-0.13-1.96,0.07-2.8c0.2-0.85,0.5-1.67,0.91-2.44c0.85-1.6,2.09-2.96,3.64-3.9
					c1.78-1.09,3.85-1.59,5.93-1.48C319.91,230.58,319.91,229.58,319.27,229.54L319.27,229.54z"/>
			</g>
		</g>
		<g>
			<g>
				<path class="st8" d="M319.76,228.36c-1.25,0.33-2.47,0.79-3.63,1.37c-0.24,0.12-0.31,0.46-0.18,0.68
					c0.14,0.25,0.44,0.3,0.68,0.18c1.08-0.54,2.22-0.96,3.39-1.27c0.26-0.07,0.42-0.36,0.35-0.62
					C320.3,228.44,320.02,228.29,319.76,228.36L319.76,228.36z"/>
			</g>
		</g>
		<g>
			<g>
				<path class="st8" d="M319.31,227.81c-0.47,0.63-1.31,0.91-2.06,1.18c-0.88,0.31-1.77,0.63-2.46,1.27
					c-0.47,0.44,0.24,1.15,0.71,0.71c0.63-0.59,1.5-0.83,2.31-1.12c0.91-0.33,1.77-0.74,2.36-1.53c0.16-0.22,0.04-0.56-0.18-0.68
					C319.74,227.49,319.48,227.6,319.31,227.81L319.31,227.81z"/>
			</g>
		</g>
		<g>
			<g>
				<path class="st8" d="M315.41,231.22c1.8-0.89,3.29-2.38,4.19-4.17c0.12-0.24,0.06-0.54-0.18-0.68
					c-0.22-0.13-0.56-0.06-0.68,0.18c-0.83,1.66-2.17,2.99-3.83,3.81c-0.24,0.12-0.31,0.46-0.18,0.68
					C314.87,231.29,315.16,231.34,315.41,231.22L315.41,231.22z"/>
			</g>
		</g>
		<g>
			<g>
				<path class="st8" d="M335.96,253.57c-1.62-0.4-3.21-1.04-4.45-2.19c-0.47-0.44-1.18,0.27-0.71,0.71
					c1.36,1.27,3.1,2.01,4.89,2.45C336.32,254.69,336.59,253.73,335.96,253.57L335.96,253.57z"/>
			</g>
		</g>
		<g>
			<g>
				<path class="st8" d="M363.86,268.68c-2.64-2.55-5.37-5-8.19-7.34c-0.49-0.41-1.2,0.3-0.71,0.71c2.82,2.34,5.55,4.79,8.19,7.34
					C363.62,269.83,364.32,269.13,363.86,268.68L363.86,268.68z"/>
			</g>
		</g>
		<g>
			<g>
				<path class="st8" d="M332.23,252.33c-1.03,0.06-1.96-0.31-2.9-0.69c-0.92-0.37-1.85-0.75-2.77-1.13
					c-1.92-0.79-3.85-1.57-5.77-2.36c-1.92-0.79-3.85-1.57-5.77-2.36c-1.2-0.49-3.66-1.12-3.7-2.76c-0.02-0.64-1.02-0.64-1,0
					c0.04,1.64,1.54,2.52,2.89,3.09c2.12,0.89,4.26,1.74,6.39,2.61c2.15,0.88,4.31,1.76,6.46,2.64c1.07,0.44,2.14,0.88,3.21,1.31
					c0.96,0.38,1.92,0.7,2.96,0.64C332.87,253.29,332.87,252.29,332.23,252.33L332.23,252.33z"/>
			</g>
		</g>
		<g>
			<g>
				<path class="st8" d="M332.54,253.63c0.64,0,0.64-1,0-1C331.9,252.63,331.9,253.63,332.54,253.63L332.54,253.63z"/>
			</g>
		</g>
		<g>
			<g>
				<path class="st8" d="M353.56,217.82c4.33-0.66,8.87,0.61,12.23,3.4c0.49,0.41,1.2-0.3,0.71-0.71
					c-3.67-3.04-8.49-4.37-13.21-3.66C352.66,216.95,352.92,217.91,353.56,217.82L353.56,217.82z"/>
			</g>
		</g>
		<g>
			<g>
				<path class="st8" d="M358.1,217.55c4.73,0.96,9.06,3.38,12.35,6.92c0.44,0.47,1.14-0.24,0.71-0.71
					c-3.4-3.65-7.9-6.19-12.79-7.18C357.74,216.45,357.47,217.42,358.1,217.55L358.1,217.55z"/>
			</g>
		</g>
		<g>
			<g>
				<path class="st8" d="M368.02,220.68c2.42,1.75,4.41,4.07,5.79,6.72c0.71,1.36,1.21,2.78,1.6,4.26c0.42,1.59,0.78,3.19,1.51,4.67
					c0.28,0.58,1.14,0.07,0.86-0.5c-0.77-1.57-1.09-3.3-1.55-4.97c-0.42-1.5-0.99-2.95-1.74-4.31c-1.45-2.66-3.5-4.95-5.96-6.73
					C368.01,219.44,367.51,220.31,368.02,220.68L368.02,220.68z"/>
			</g>
		</g>
		<g>
			<g>
				<path class="st8" d="M364.14,269.62c4.6-2.16,8.05-6.05,10.84-10.19c1.53-2.27,3.06-4.65,3.75-7.33c0.7-2.74,0.64-5.61,0.37-8.4
					c-0.33-3.43-0.94-6.84-0.77-10.29c0.03-0.64-0.97-0.64-1,0c-0.28,5.72,1.67,11.42,0.71,17.12c-0.46,2.78-1.8,5.14-3.31,7.47
					c-1.35,2.08-2.82,4.09-4.53,5.89c-1.9,2-4.07,3.7-6.57,4.87C363.05,269.03,363.56,269.89,364.14,269.62L364.14,269.62z"/>
			</g>
		</g>
		<g>
			<g>
				<path class="st8" d="M377.55,232.07c-2.37-5.37-6.49-9.89-11.6-12.77c-0.56-0.32-1.07,0.55-0.5,0.86
					c4.98,2.8,8.94,7.18,11.24,12.41C376.94,233.16,377.8,232.65,377.55,232.07L377.55,232.07z"/>
			</g>
		</g>
		<g>
			<g>
				<path class="st8" d="M367.85,220.19c-0.72-0.64-1.62-0.99-2.49-1.37c-0.92-0.41-1.84-0.8-2.79-1.12
					c-1.91-0.65-3.89-0.98-5.89-0.66c-0.63,0.1-0.36,1.07,0.27,0.96c1.82-0.3,3.64,0.07,5.36,0.66c0.87,0.3,1.71,0.65,2.55,1.02
					c0.77,0.34,1.64,0.65,2.28,1.22C367.62,221.32,368.33,220.62,367.85,220.19L367.85,220.19z"/>
			</g>
		</g>
		<g>
			<g>
				<path class="st8" d="M367.93,219.87c-1.09-0.43-2.18-0.86-3.27-1.29c-0.24-0.1-0.56,0.11-0.62,0.35
					c-0.07,0.29,0.09,0.51,0.35,0.62c1.09,0.43,2.18,0.86,3.27,1.29c0.24,0.1,0.56-0.11,0.62-0.35
					C368.34,220.2,368.19,219.98,367.93,219.87L367.93,219.87z"/>
			</g>
		</g>
		<g>
			<g>
				<path class="st8" d="M377.77,233.38c0.64,0,0.64-1,0-1C377.13,232.38,377.13,233.38,377.77,233.38L377.77,233.38z"/>
			</g>
		</g>
		<g>
			<g>
				<path class="st8" d="M378.23,232.77c-0.94-2.44-2.01-5.06-4.39-6.44c-0.56-0.32-1.06,0.54-0.5,0.86
					c2.14,1.24,3.09,3.65,3.93,5.84c0.1,0.25,0.34,0.43,0.62,0.35C378.12,233.32,378.33,233.02,378.23,232.77L378.23,232.77z"/>
			</g>
		</g>
		<g>
			<g>
				<path class="st8" d="M379.26,243.12c-0.39-2.86-1.03-5.68-1.9-8.43c-0.19-0.61-1.16-0.35-0.96,0.27
					c0.87,2.75,1.51,5.57,1.9,8.43C378.38,244.02,379.35,243.75,379.26,243.12L379.26,243.12z"/>
			</g>
		</g>
		<g>
			<g>
				<path class="st8" d="M379.21,241.31c0-0.88-0.01-1.77-0.01-2.65c0-0.8,0.02-1.61-0.09-2.4c-0.22-1.57-0.95-3.01-1.67-4.41
					c-0.29-0.57-1.16-0.07-0.86,0.5c0.68,1.33,1.41,2.71,1.57,4.21c0.08,0.75,0.05,1.52,0.05,2.27c0,0.83,0.01,1.65,0.01,2.48
					C378.21,241.95,379.21,241.95,379.21,241.31L379.21,241.31z"/>
			</g>
		</g>
		<g>
			<g>
				<path class="st8" d="M368.21,219.61c-1.36-1.13-3.25-1.53-4.92-2.01c-1.9-0.55-3.85-1-5.84-1.08c-0.92-0.03-1.84,0.02-2.74,0.18
					c-0.68,0.12-1.74,0.23-1.89,1.06c-0.07,0.39,0.11,0.79,0.21,1.16c0.14,0.48,0.27,0.97,0.38,1.46c0.23,1.01,0.41,2.03,0.52,3.06
					c0.07,0.69,0.54,6.23-0.43,6.19c-0.53-0.02-0.63,0.67-0.25,0.93c3.05,2.15,5.84,4.66,8.29,7.47c1.24,1.42,2.39,2.9,3.44,4.46
					c1.1,1.62,2.11,3.29,3.34,4.81c0.16-0.28,0.32-0.56,0.49-0.84c-7.48-1.57-10.84-9.47-15.15-14.88c-0.2-0.25-0.65-0.16-0.79,0.1
					c-1.99,3.83-3.98,7.66-5.98,11.49c0.29,0.17,0.58,0.34,0.86,0.5c1.81-3.99,3.46-8.05,4.94-12.17c-0.32-0.09-0.64-0.18-0.96-0.27
					c-0.48,2.26-0.83,5.98,1.83,6.99c2,0.76,4.45-0.09,5.58-1.9c1.24-1.99,0.69-4.72-0.86-6.37c-1.67-1.78-4.29-2.36-6.64-2
					c-2.67,0.4-5.29,1.89-7.22,3.74c-1.68,1.61-2.83,3.95-2.1,6.29c0.83,2.66,3.81,3.31,6.28,3.35c2.43,0.05,5.12-0.94,6.09-3.35
					c0.56-1.38,0.3-2.89-0.29-4.22c-0.56-1.27-1.41-2.62-2.64-3.33c-1.06-0.61-2.52-0.69-3.48,0.15c-0.44,0.38-0.74,0.98-0.66,1.57
					c0.1,0.73,0.75,0.86,1.07,1.43c0.06-0.23,0.12-0.46,0.18-0.68c-1.31,0.88-2.4,1.99-3.28,3.3c-0.1,0.14-0.09,0.36,0,0.5
					c1.8,2.83,5.68,2.4,7.94,4.6c1.47,1.43,2.39,3.51,3.33,5.3c1.08,2.03,2.08,4.09,3.02,6.19c0.26,0.59,1.12,0.08,0.86-0.5
					c-0.94-2.1-1.94-4.16-3.02-6.19c-0.94-1.77-1.85-3.72-3.21-5.21c-1.11-1.22-2.61-1.8-4.13-2.32c-1.45-0.5-3.07-0.99-3.93-2.36
					c0,0.17,0,0.34,0,0.5c0.78-1.16,1.76-2.15,2.92-2.94c0.23-0.15,0.32-0.43,0.18-0.68c-0.19-0.35-0.51-0.49-0.76-0.78
					c-0.45-0.51,0.13-1.07,0.64-1.24c0.94-0.32,1.91,0.17,2.56,0.83c1.39,1.4,2.61,3.94,1.7,5.88c-0.92,1.97-3.21,2.63-5.22,2.57
					c-1.96-0.06-4.52-0.47-5.2-2.62c-1.29-4.05,3.73-7.35,6.95-8.4c1.93-0.63,4.11-0.68,5.95,0.3c1.67,0.89,2.77,2.63,2.63,4.55
					c-0.15,2.05-2.03,3.53-4.06,3.33c-0.48-0.05-0.98-0.2-1.38-0.47c-0.52-0.35-0.69-0.91-0.79-1.5c-0.23-1.32-0.16-2.71,0.12-4.02
					c0.14-0.63-0.75-0.87-0.96-0.27c-1.45,4.04-3.06,8.02-4.84,11.93c-0.26,0.58,0.56,1.08,0.86,0.5c1.99-3.83,3.98-7.66,5.98-11.49
					c-0.26,0.03-0.52,0.07-0.79,0.1c4.45,5.58,7.87,13.52,15.6,15.14c0.51,0.11,0.8-0.45,0.49-0.84c-1.31-1.62-2.36-3.43-3.55-5.13
					c-1.04-1.49-2.17-2.93-3.38-4.29c-2.48-2.81-5.29-5.31-8.36-7.47c-0.08,0.31-0.17,0.62-0.25,0.93c0.84,0.04,1.27-0.74,1.4-1.47
					c0.2-1.14,0.19-2.36,0.17-3.52c-0.05-2.44-0.45-4.86-1.14-7.2c-0.12-0.4-0.15-0.44,0.25-0.6c0.27-0.11,0.61-0.14,0.9-0.19
					c0.63-0.1,1.27-0.14,1.91-0.14c1.27,0.01,2.52,0.19,3.76,0.47c1.22,0.27,2.42,0.62,3.61,0.99c1.08,0.33,2.25,0.61,3.13,1.35
					C367.99,220.72,368.7,220.02,368.21,219.61L368.21,219.61z"/>
			</g>
		</g>
		<g>
			<g>
				<path class="st8" d="M376.44,229.03c-0.97-1.59-1.86-3.3-3.08-4.72c-0.58-0.68-1.23-1.3-1.86-1.92
					c-0.66-0.64-1.34-1.26-2.12-1.75c-0.55-0.34-1.05,0.52-0.5,0.86c0.73,0.46,1.36,1.04,1.97,1.64c0.62,0.6,1.25,1.21,1.81,1.87
					c1.16,1.35,2,3,2.92,4.51C375.91,230.08,376.78,229.58,376.44,229.03L376.44,229.03z"/>
			</g>
		</g>
		<g>
			<g>
				<path class="st8" d="M377.54,233.41c1.74,6.47,1.74,13.31,0.01,19.78c-0.17,0.62,0.8,0.89,0.96,0.27
					c1.78-6.64,1.77-13.68-0.01-20.31C378.34,232.52,377.37,232.78,377.54,233.41L377.54,233.41z"/>
			</g>
		</g>
		<g>
			<g>
				<path class="st8" d="M360.53,217.37c-2.31-1.18-4.93-1.49-7.49-1.16c-0.27,0.03-0.5,0.21-0.5,0.5c0,0.24,0.23,0.53,0.5,0.5
					c2.37-0.3,4.83-0.07,6.98,1.02C360.6,218.52,361.11,217.66,360.53,217.37L360.53,217.37z"/>
			</g>
		</g>
		<g>
			<g>
				<path class="st8" d="M343.66,218.85c-1.56,0.72-3.09,1.5-4.59,2.35c-0.56,0.32-0.06,1.18,0.5,0.86c1.5-0.84,3.03-1.62,4.59-2.35
					c0.25-0.11,0.31-0.47,0.18-0.68C344.19,218.78,343.9,218.74,343.66,218.85L343.66,218.85z"/>
			</g>
		</g>
		<g>
			<g>
				<path class="st8" d="M364.57,217.62c-3.71-1.66-7.95-2.95-12.02-2.07c-0.63,0.14-0.36,1.1,0.27,0.96
					c3.79-0.82,7.81,0.43,11.25,1.97C364.65,218.74,365.16,217.88,364.57,217.62L364.57,217.62z"/>
			</g>
		</g>
		<g>
			<g>
				<path class="st8" d="M315.48,231.09c0.83-0.58,1.61-1.23,2.32-1.95c0.18-0.19,0.2-0.52,0-0.71c-0.2-0.18-0.51-0.2-0.71,0
					c-0.33,0.34-0.68,0.67-1.05,0.98c-0.09,0.07-0.18,0.15-0.26,0.22c-0.05,0.04-0.09,0.08-0.14,0.11
					c-0.02,0.02-0.04,0.03-0.06,0.05c-0.05,0.04,0.06-0.05-0.01,0.01c-0.19,0.15-0.39,0.29-0.59,0.43
					c-0.21,0.15-0.33,0.45-0.18,0.68C314.94,231.13,315.25,231.25,315.48,231.09L315.48,231.09z"/>
			</g>
		</g>
		<g>
			<g>
				<path class="st8" d="M318.93,226.81c-2.74,1.88-6.07,2.93-8.46,5.32c-1.24,1.25-2.08,2.83-2.54,4.52
					c-0.42,1.53-0.93,3.74-0.03,5.18c0.87,1.39,2.61,1.78,3.71,2.92c0.45,0.46,1.15-0.24,0.71-0.71c-0.6-0.62-1.35-1.04-2.08-1.48
					c-0.7-0.42-1.46-0.91-1.7-1.74c-0.3-1.04,0-2.36,0.23-3.39c0.24-1.04,0.61-2.06,1.16-2.98c2.07-3.48,6.34-4.6,9.51-6.77
					C319.97,227.31,319.47,226.44,318.93,226.81L318.93,226.81z"/>
			</g>
		</g>
		<g>
			<g>
				<path class="st8" d="M364.44,269.7c3.48-0.5,6-3.14,7.97-5.86c2.13-2.94,4.27-6.03,5.51-9.46c0.22-0.61-0.75-0.87-0.96-0.27
					c-1.17,3.22-3.18,6.09-5.15,8.86c-1.88,2.65-4.25,5.27-7.64,5.76C363.54,268.83,363.81,269.79,364.44,269.7L364.44,269.7z"/>
			</g>
		</g>
		<g>
			<g>
				<path class="st8" d="M343.86,217.49c-1.54,0.79-3.07,1.61-4.45,2.65c-0.22,0.16-0.33,0.43-0.18,0.68
					c0.12,0.21,0.47,0.34,0.68,0.18c1.38-1.04,2.91-1.86,4.45-2.65C344.94,218.06,344.43,217.19,343.86,217.49L343.86,217.49z"/>
			</g>
		</g>
		<g>
			<g>
				<path class="st8" d="M358.26,215.15c-1.72-0.73-3.61-1.03-5.48-0.88c-0.27,0.02-0.5,0.21-0.5,0.5c0,0.25,0.23,0.52,0.5,0.5
					c1.79-0.15,3.56,0.15,5.21,0.84c0.25,0.1,0.55-0.11,0.62-0.35C358.69,215.47,358.51,215.25,358.26,215.15L358.26,215.15z"/>
			</g>
		</g>
		<g>
			<g>
				<path class="st8" d="M366.89,218.44c-0.43-0.63-1.08-0.9-1.77-1.16c-0.83-0.31-1.67-0.6-2.52-0.87c-1.76-0.55-3.54-1-5.35-1.35
					c-0.63-0.12-0.9,0.84-0.27,0.96c1.63,0.32,3.24,0.71,4.83,1.19c0.8,0.24,1.58,0.5,2.37,0.78c0.59,0.21,1.46,0.39,1.84,0.94
					C366.39,219.48,367.25,218.98,366.89,218.44L366.89,218.44z"/>
			</g>
		</g>
		<g>
			<g>
				<path class="st8" d="M372.44,222.58c-1.9-1.61-3.74-3.46-6.01-4.53c-2.27-1.07-4.73-1.78-7.1-2.6
					c-0.61-0.21-0.87,0.75-0.27,0.96c2.28,0.8,4.67,1.47,6.86,2.5c2.2,1.04,3.97,2.82,5.8,4.37
					C372.22,223.71,372.93,223,372.44,222.58L372.44,222.58z"/>
			</g>
		</g>
		<g>
			<g>
				<path class="st8" d="M361.29,215.64c-2.16-1.05-4.56-1.52-6.95-1.33c-0.64,0.05-0.64,1.05,0,1c2.22-0.18,4.45,0.22,6.45,1.19
					C361.36,216.79,361.87,215.92,361.29,215.64L361.29,215.64z"/>
			</g>
		</g>
		<g>
			<g>
				<path class="st8" d="M374.33,225.04c-0.15-0.6-0.59-1.02-1.06-1.39c-0.21-0.17-0.43-0.33-0.63-0.52
					c-0.05-0.05-0.09-0.09-0.14-0.14c-0.02-0.02-0.04-0.05-0.06-0.07c-0.07-0.08,0.05,0.08,0,0c-0.04-0.05-0.07-0.1-0.1-0.16
					c-0.02-0.03-0.03-0.07-0.05-0.1c-0.02-0.03-0.01-0.02,0.02,0.05c-0.01-0.02-0.02-0.04-0.02-0.06c-0.28,0.16-0.56,0.32-0.84,0.49
					c0.2,0.19,0.39,0.39,0.58,0.59c0.09,0.1,0.18,0.21,0.27,0.32c0.02,0.02,0.04,0.05,0.06,0.07c0.06,0.07-0.01-0.02,0.02,0.03
					c0.04,0.06,0.08,0.11,0.12,0.17c0.32,0.45,0.6,0.93,0.84,1.42c0.11,0.24,0.47,0.32,0.68,0.18c0.24-0.16,0.3-0.43,0.18-0.68
					c-0.49-1.05-1.19-2.01-2.04-2.8c-0.16-0.15-0.42-0.2-0.61-0.08c-0.18,0.11-0.31,0.35-0.23,0.56c0.21,0.59,0.65,0.99,1.13,1.37
					c0.21,0.17,0.42,0.33,0.61,0.53c0.02,0.02,0.11,0.14,0.13,0.14c-0.05-0.06-0.05-0.07-0.02-0.03c0.01,0.01,0.01,0.02,0.02,0.03
					c0.02,0.03,0.03,0.05,0.05,0.08c0.02,0.03,0.06,0.15,0.09,0.16c-0.03-0.07-0.03-0.08-0.01-0.03c0.01,0.01,0.01,0.03,0.02,0.04
					c0.01,0.04,0.02,0.07,0.03,0.11c0.06,0.25,0.36,0.43,0.62,0.35C374.24,225.57,374.4,225.31,374.33,225.04L374.33,225.04z"/>
			</g>
		</g>
		<g>
			<g>
				<path class="st8" d="M362.82,216.27c-0.74-0.34-1.51-0.62-2.29-0.83c-0.25-0.07-0.55,0.09-0.62,0.35
					c-0.06,0.26,0.08,0.54,0.35,0.62c0.37,0.1,0.73,0.21,1.08,0.34c0.18,0.06,0.35,0.13,0.52,0.2c0.04,0.02,0.08,0.03,0.11,0.05
					c0.05,0.02,0.05,0.02-0.01,0c0.03,0.01,0.05,0.02,0.08,0.03c0.09,0.04,0.18,0.08,0.26,0.12c0.24,0.11,0.55,0.08,0.68-0.18
					C363.12,216.74,363.08,216.39,362.82,216.27L362.82,216.27z"/>
			</g>
		</g>
		<g>
			<g>
				<path class="st8" d="M308.18,243.24c0.64,0,0.64-1,0-1C307.53,242.24,307.53,243.24,308.18,243.24L308.18,243.24z"/>
			</g>
		</g>
		<g>
			<g>
				<path class="st8" d="M307.76,242.53c0.64,0,0.64-1,0-1C307.12,241.53,307.12,242.53,307.76,242.53L307.76,242.53z"/>
			</g>
		</g>
		<g>
			<g>
				<path class="st8" d="M307.76,241.39c0.64,0,0.64-1,0-1C307.12,240.39,307.12,241.39,307.76,241.39L307.76,241.39z"/>
			</g>
		</g>
		<g>
			<g>
				<path class="st8" d="M307.76,241.91c0.64,0,0.64-1,0-1C307.12,240.91,307.12,241.91,307.76,241.91L307.76,241.91z"/>
			</g>
		</g>
		<g>
			<g>
				<path class="st8" d="M309,244.07c0.64,0,0.64-1,0-1C308.36,243.07,308.35,244.07,309,244.07L309,244.07z"/>
			</g>
		</g>
		<g>
			<g>
				<path class="st8" d="M309.82,244.07c0.64,0,0.64-1,0-1C309.18,243.07,309.18,244.07,309.82,244.07L309.82,244.07z"/>
			</g>
		</g>
		<g>
			<g>
				<path class="st8" d="M309.47,243.91c0.14,0.15,0.27,0.3,0.41,0.44c0.07-0.28,0.15-0.56,0.22-0.84
					c-0.08,0.03-0.15,0.05-0.23,0.06c0.04-0.01,0.09-0.01,0.13-0.02c-0.1,0.01-0.2,0.01-0.3,0c0.04,0.01,0.09,0.01,0.13,0.02
					c-0.1-0.01-0.19-0.04-0.28-0.07c0.04,0.02,0.08,0.03,0.12,0.05c-0.03-0.01-0.06-0.03-0.1-0.05c-0.12-0.06-0.25-0.09-0.39-0.05
					c-0.12,0.03-0.24,0.12-0.3,0.23c-0.06,0.12-0.09,0.26-0.05,0.39c0.04,0.12,0.11,0.24,0.23,0.3c0.22,0.12,0.44,0.18,0.69,0.2
					c0.1,0.01,0.2,0,0.3-0.02c0.1-0.01,0.2-0.03,0.3-0.07c0.08-0.02,0.16-0.07,0.22-0.13c0.06-0.06,0.1-0.14,0.13-0.22
					c0.05-0.18-0.01-0.35-0.13-0.49c-0.14-0.15-0.27-0.3-0.41-0.44c-0.08-0.09-0.23-0.15-0.35-0.15c-0.12,0-0.27,0.05-0.35,0.15
					c-0.09,0.1-0.15,0.22-0.15,0.35C309.33,243.7,309.38,243.81,309.47,243.91L309.47,243.91z"/>
			</g>
		</g>
		<g>
			<g>
				<path class="st8" d="M309.37,243.44c-0.44-0.26-0.71-0.7-0.85-1.2c-0.19-0.67-0.15-1.39-0.11-2.08c0.01-0.27-0.24-0.5-0.5-0.5
					c-0.28,0-0.49,0.23-0.5,0.5c-0.04,0.82-0.08,1.67,0.18,2.46c0.22,0.69,0.64,1.32,1.28,1.69
					C309.42,244.63,309.93,243.77,309.37,243.44L309.37,243.44z"/>
			</g>
		</g>
		<g>
			<g>
				<path class="st8" d="M373.36,225.4c1.88,2.57,3.24,5.46,4.01,8.54c0.16,0.62,1.12,0.36,0.96-0.27
					c-0.79-3.16-2.19-6.15-4.11-8.78C373.84,224.38,372.97,224.88,373.36,225.4L373.36,225.4z"/>
			</g>
		</g>
		<g>
			<g>
				<path class="st8" d="M366.06,217.08c-2.64-1.63-5.76-2.39-8.85-2.15c-0.64,0.05-0.64,1.05,0,1c2.93-0.23,5.85,0.47,8.34,2.01
					C366.11,218.28,366.61,217.42,366.06,217.08L366.06,217.08z"/>
			</g>
		</g>
		<g>
			<g>
				<path class="st8" d="M368.6,219.39c-0.62-0.83-1.4-1.51-2.33-1.97c-0.08,0.31-0.17,0.62-0.25,0.93
					c0.63-0.07,1.08,0.23,1.51,0.67c0.49,0.5,0.94,1.04,1.4,1.55c0.98,1.1,1.97,2.2,2.95,3.3c0.43,0.48,1.14-0.23,0.71-0.71
					c-1.06-1.19-2.13-2.38-3.19-3.57c-0.89-1-1.85-2.4-3.37-2.24c-0.44,0.05-0.74,0.69-0.25,0.93c0.77,0.38,1.45,0.92,1.97,1.61
					c0.16,0.22,0.43,0.33,0.68,0.18C368.64,219.95,368.77,219.61,368.6,219.39L368.6,219.39z"/>
			</g>
		</g>
		<g>
			<g>
				<path class="st8" d="M308.45,241.64c-0.06,2.09,1.72,3.36,3.48,4.03c2.27,0.86,4.64,1.54,6.95,2.3c0-0.32,0-0.64,0-0.96
					c-1.89,0.27-3.89,0.48-5.75-0.08c-1.8-0.54-3.25-1.93-4.42-3.35c-1.24-1.5-2.15-3.36-2.13-5.34c0.02-1.92,1-3.47,2.38-4.73
					c1.66-1.52,3.61-2.75,5.43-4.06c0.52-0.37,0.02-1.24-0.5-0.86c-1.81,1.31-3.73,2.54-5.41,4.02c-1.5,1.32-2.65,2.96-2.86,4.99
					c-0.22,2.16,0.59,4.3,1.86,6.02c1.18,1.6,2.73,3.2,4.58,3.99c2.24,0.96,4.75,0.71,7.09,0.37c0.53-0.08,0.42-0.83,0-0.96
					c-1.99-0.65-3.98-1.3-5.97-1.96c-1.6-0.53-3.79-1.37-3.72-3.41C309.47,241,308.47,241,308.45,241.64L308.45,241.64z"/>
			</g>
		</g>
		<g>
			<g>
				<path class="st8" d="M314.62,248.75c2.87-0.03,5.71,0.34,8.47,1.12c0.62,0.18,0.89-0.79,0.27-0.96
					c-2.84-0.8-5.78-1.19-8.73-1.16C313.97,247.76,313.97,248.76,314.62,248.75L314.62,248.75z"/>
			</g>
		</g>
		<g>
			<g>
				<path class="st8" d="M313.92,248.9c0.64,0,0.64-1,0-1C313.27,247.9,313.27,248.9,313.92,248.9L313.92,248.9z"/>
			</g>
		</g>
		<g>
			<g>
				<path class="st8" d="M313.7,249.04c1.43,0.59,2.95,0.86,4.47,1.09c1.66,0.25,3.33,0.49,4.99,0.74c2.68,0.39,5.86,0.54,7.99,2.42
					c0.48,0.43,1.19-0.28,0.71-0.71c-2.18-1.93-5.18-2.2-7.94-2.61c-1.71-0.25-3.43-0.5-5.14-0.76c-1.64-0.24-3.27-0.51-4.81-1.14
					C313.37,247.83,313.11,248.8,313.7,249.04L313.7,249.04z"/>
			</g>
		</g>
		<g>
			<g>
				<path class="st8" d="M332.09,252.57c-1.84,0.18-3.53-0.66-5.17-1.4c-1.75-0.79-3.51-1.57-5.26-2.36
					c-0.58-0.26-1.09,0.6-0.5,0.86c1.88,0.84,3.77,1.69,5.65,2.53c1.67,0.75,3.41,1.54,5.28,1.36
					C332.72,253.51,332.73,252.51,332.09,252.57L332.09,252.57z"/>
			</g>
		</g>
		<g>
			<g>
				<path class="st8" d="M324.86,251.01c-4.35,0.05-8.66-1.37-12.1-4.05c-0.5-0.39-1.21,0.31-0.71,0.71
					c3.66,2.84,8.17,4.4,12.81,4.34C325.51,252,325.51,251,324.86,251.01L324.86,251.01z"/>
			</g>
		</g>
		<g>
			<g>
				<path class="st8" d="M326.03,252.4c0.64,0,0.64-1,0-1C325.38,251.4,325.38,252.4,326.03,252.4L326.03,252.4z"/>
			</g>
		</g>
		<g>
			<g>
				<path class="st8" d="M326.03,252.4c0.64,0,0.64-1,0-1C325.38,251.4,325.38,252.4,326.03,252.4L326.03,252.4z"/>
			</g>
		</g>
		<g>
			<g>
				<path class="st8" d="M365.3,270.91c3.09-2.4,5.78-5.28,7.99-8.5c0.37-0.53-0.5-1.03-0.86-0.5c-2.17,3.15-4.82,5.95-7.84,8.3
					C364.08,270.6,364.8,271.3,365.3,270.91L365.3,270.91z"/>
			</g>
		</g>
		<g>
			<g>
				<path class="st8" d="M315.55,227.47c0.64,0,0.64-1,0-1C314.9,226.47,314.9,227.47,315.55,227.47L315.55,227.47z"/>
			</g>
		</g>
		<g>
			<g>
				<path class="st8" d="M318.11,226.54c0.64,0,0.64-1,0-1C317.46,225.54,317.46,226.54,318.11,226.54L318.11,226.54z"/>
			</g>
		</g>
	</g>
	<g id="Layer_10">
		<g>
			<g>
				<path class="st6" d="M338.11,219.37c3.41-1.72,7.02-3.63,10.92-3.91c3.89-0.28,7.88,1.02,11.49,2.35
					c2.9,1.07,5.21,3.09,8.11,4.15c3.15,1.15,6.66,1.49,9.94,2.07c3.78,0.67,5.4-5.11,1.6-5.79c-4.67-0.83-8.81-1.42-12.93-3.87
					c-3.15-1.88-6.74-3.09-10.3-3.97c-8.06-2.01-14.62,0.15-21.84,3.79C331.63,215.93,334.66,221.11,338.11,219.37L338.11,219.37z"
					/>
			</g>
		</g>
		<g>
			<g>
				<path class="st6" d="M366.3,217.14c3.86,0,3.87-6,0-6C362.44,211.14,362.43,217.14,366.3,217.14L366.3,217.14z"/>
			</g>
		</g>
		<g>
			<g>
				<path class="st6" d="M364.22,216.18c4.61,3.96,9.73,8.23,11.99,14.06c2.26,5.84,1.71,13.15,2.07,19.32c0.22,3.84,6.23,3.86,6,0
					c-0.43-7.29,0.08-15.49-2.87-22.33c-2.7-6.27-7.87-10.94-12.94-15.3C365.55,209.43,361.29,213.66,364.22,216.18L364.22,216.18z"
					/>
			</g>
		</g>
		<g>
			<g>
				<path class="st6" d="M378.19,249.86c0.24,6.03-1.27,11.88-4.16,17.1c-2.32,4.19-2.59,8.43-3.18,13.14c-0.48,3.82,5.53,3.79,6,0
					c0.4-3.19,0.48-6.52,1.95-9.41c0.98-1.93,2.23-3.57,2.95-5.64c1.67-4.78,2.64-10.14,2.44-15.18
					C384.04,246.02,378.04,246,378.19,249.86L378.19,249.86z"/>
			</g>
		</g>
		<g>
			<g>
				<path class="st6" d="M375.64,270.8c-1.2-0.37-2.44-0.26-3.56,0.32c-0.76,0.39-1.31,1.08-2.07,1.43c-1.3,0.6-2.93,0.79-4.12,2.06
					c-2.64,2.81,1.59,7.07,4.24,4.24c0.44-0.47-0.16-0.03,0.47-0.25c0.46-0.16,0.94-0.26,1.39-0.43c0.62-0.23,1.18-0.49,1.71-0.86
					c0.32-0.24,0.64-0.49,0.94-0.74c0.26-0.19,0.06-0.19-0.6,0.01C377.74,277.73,379.32,271.94,375.64,270.8L375.64,270.8z"/>
			</g>
		</g>
		<g>
			<g>
				<path class="st6" d="M373.61,275.92c3.86,0,3.87-6,0-6C369.75,269.92,369.74,275.92,373.61,275.92L373.61,275.92z"/>
			</g>
		</g>
		<g>
			<g>
				<path class="st6" d="M374.07,268.23c-3.09,1.85-5.83,3.93-8.4,6.46c-2.75,2.72,1.49,6.96,4.24,4.24
					c2.22-2.19,4.51-3.92,7.18-5.52C380.41,271.43,377.39,266.24,374.07,268.23L374.07,268.23z"/>
			</g>
		</g>
		<g>
			<g>
				<path class="st6" d="M315.84,222.33c-7.79,2.66-14.75,10.42-13.57,19.18c0.6,4.46,3.68,6.98,7.57,8.73
					c2.31,1.04,4.82,1.57,7.12,2.53c3.08,1.29,3.72,4.69,4.42,7.97c0.81,3.77,6.59,2.18,5.79-1.6c-0.69-3.26-1.77-7.07-3.95-9.71
					c-1.93-2.33-4.37-2.24-7.15-3.12c-5.01-1.59-9.35-3.93-7.23-9.96c1.41-3.98,4.66-6.89,8.6-8.24
					C321.07,226.88,319.51,221.08,315.84,222.33L315.84,222.33z"/>
			</g>
		</g>
		<g>
			<g>
				<path class="st6" d="M318.1,253.07c11.36,3.63,22.94,6.29,34.74,7.99c3.78,0.54,5.41-5.24,1.6-5.79
					c-11.8-1.7-23.38-4.37-34.74-7.99C316.01,246.1,314.43,251.89,318.1,253.07L318.1,253.07z"/>
			</g>
		</g>
		<g>
			<g>
				<path class="st6" d="M339.22,258.39c3.83,0.7,7.46,1.84,10.84,3.83c3.02,1.78,4.54,4.21,7.07,6.41
					c3.96,3.44,10.85,3.86,15.82,4.73c3.78,0.66,5.4-5.12,1.6-5.79c-3.42-0.6-7.01-1.12-10.32-2.22c-3.29-1.1-4.48-3.3-7.05-5.44
					c-4.68-3.9-10.41-6.23-16.36-7.32C337.04,251.91,335.42,257.69,339.22,258.39L339.22,258.39z"/>
			</g>
		</g>
		<g>
			<g>
				<path class="st6" d="M362.74,270.03c-0.37,1.39-0.08,2.64,0.56,3.89c0.1,0.19,0.21,0.38,0.32,0.56c0.03,0.05,0.27,0.5,0.21,0.36
					c-0.06-0.14,0.09,0.34,0.1,0.41c0.09,0.5,0-0.58-0.02,0.33c-0.03,1.57,1.4,3.07,3,3c1.65-0.07,2.97-1.32,3-3
					c0.02-1.07-0.18-2.08-0.59-3.06c-0.18-0.42-0.38-0.81-0.6-1.21c-0.11-0.19-0.22-0.37-0.31-0.57c0.17,0.25,0.21,0.54,0.12,0.87
					c0.4-1.51-0.51-3.33-2.1-3.69C364.86,267.58,363.17,268.41,362.74,270.03L362.74,270.03z"/>
			</g>
		</g>
	</g>
	<g id="Layer_11">
		<g>
			<g>
				<path class="st9" d="M356.45,259.05c3.86,0,3.87-6,0-6C352.59,253.05,352.59,259.05,356.45,259.05L356.45,259.05z"/>
			</g>
		</g>
		<g>
			<g>
				<path class="st9" d="M354.91,257.22c3.86,0,3.87-6,0-6C351.05,251.22,351.04,257.22,354.91,257.22L354.91,257.22z"/>
			</g>
		</g>
		<g>
			<g>
				<path class="st9" d="M358.58,257.99c-1.81-1.43-3.63-2.9-5.72-3.91c-0.48-0.23-0.98-0.42-1.47-0.65
					c-0.24-0.12-0.47-0.25-0.69-0.39c-0.37-0.25,0.09,0.09-0.1-0.08c-0.1-0.08-0.19-0.16-0.28-0.25c-0.92-0.81-1.76-1.44-3.02-1.57
					c-0.81-0.08-1.5,0.75-1.5,1.5c0,0.88,0.69,1.42,1.5,1.5c-0.18-0.02-0.06-0.03,0.02,0.02c-0.17-0.13-0.01-0.01,0.09,0.05
					c0.08,0.05,0.16,0.1,0.24,0.15c0.2,0.13-0.15-0.12,0.04,0.03c0.33,0.27,0.63,0.56,0.96,0.83c0.87,0.7,1.87,1.05,2.86,1.54
					c1.81,0.9,3.42,2.15,4.95,3.36c0.63,0.5,1.5,0.62,2.12,0C359.1,259.59,359.22,258.49,358.58,257.99L358.58,257.99z"/>
			</g>
		</g>
		<g>
			<g>
				<path class="st9" d="M356.93,259.28c-0.08,0.74,0.35,1.51,0.9,1.98c0.5,0.42,1.05,0.69,1.64,0.97c1.23,0.59,2.47,1.14,3.73,1.67
					c0.33,0.14,0.86,0.02,1.16-0.15c0.31-0.18,0.61-0.54,0.69-0.9c0.09-0.38,0.07-0.82-0.15-1.16c-0.23-0.35-0.51-0.53-0.9-0.69
					c-0.15-0.06-0.12-0.05,0.08,0.03c-0.06-0.03-0.12-0.05-0.18-0.08c-0.12-0.05-0.24-0.1-0.37-0.16c-0.24-0.11-0.49-0.21-0.73-0.32
					c-0.49-0.22-0.97-0.44-1.45-0.67c-0.45-0.21-0.91-0.41-1.33-0.66c-0.08-0.05-0.16-0.12-0.25-0.16c0.2,0.16,0.25,0.2,0.13,0.1
					c-0.04-0.03-0.07-0.06-0.1-0.1c-0.1-0.11-0.07-0.06,0.1,0.15c-0.03-0.04-0.05-0.07-0.07-0.11c0.1,0.26,0.13,0.32,0.08,0.18
					c-0.01-0.04-0.02-0.08-0.03-0.13c0.02,0.13,0.04,0.27,0.05,0.4c0-0.07,0-0.13,0-0.2c0.04-0.36-0.2-0.82-0.44-1.06
					c-0.26-0.26-0.69-0.46-1.06-0.44c-0.39,0.02-0.79,0.14-1.06,0.44C357.08,258.53,356.98,258.86,356.93,259.28L356.93,259.28z"/>
			</g>
		</g>
		<g>
			<g>
				<path class="st9" d="M371.22,222.8c-2.69-1.43-5.22-3.11-7.84-4.66c-2.52-1.49-5.16-2.25-8.05-2.58
					c-2.82-0.32-5.68-0.17-8.47,0.37c-1.47,0.29-2.92,0.7-4.33,1.23c-1.33,0.5-2.64,1.22-4.09,1.3c-1.92,0.11-1.93,3.11,0,3
					c2.69-0.15,5.09-1.63,7.67-2.29c2.71-0.7,5.52-0.92,8.31-0.69c2.76,0.22,5.25,0.95,7.62,2.37c2.55,1.53,5.02,3.14,7.65,4.54
					C371.41,226.3,372.92,223.71,371.22,222.8L371.22,222.8z"/>
			</g>
		</g>
		<g>
			<g>
				<path class="st9" d="M338.74,253.01c11.03,2.17,19.64,10.2,29.95,14.2c1.8,0.7,2.58-2.2,0.8-2.89
					c-10.34-4.01-18.87-12.01-29.95-14.2C337.65,249.74,336.85,252.63,338.74,253.01L338.74,253.01z"/>
			</g>
		</g>
		<g>
			<g>
				<path class="st9" d="M317.54,226.96c-5.59,2.09-9.32,7.6-8.83,13.62c0.07,0.81,0.64,1.5,1.5,1.5c0.76,0,1.57-0.69,1.5-1.5
					c-0.38-4.64,2.27-9.1,6.63-10.73c0.76-0.28,1.28-1.01,1.05-1.85C319.19,227.28,318.31,226.67,317.54,226.96L317.54,226.96z"/>
			</g>
		</g>
		<g>
			<g>
				<path class="st9" d="M335.53,252.25c2.34,0.33,4.64,0.85,6.9,1.56c0.75,0.24,1.67-0.28,1.85-1.05c0.19-0.82-0.25-1.59-1.05-1.85
					c-2.25-0.71-4.56-1.23-6.9-1.56c-0.42-0.06-0.78-0.07-1.16,0.15c-0.31,0.18-0.61,0.54-0.69,0.9
					C334.32,251.11,334.7,252.13,335.53,252.25L335.53,252.25z"/>
			</g>
		</g>
		<g>
			<g>
				<path class="st9" d="M333.18,251.34c0.72,0.31,1.45,0.59,2.23,0.77c0.77,0.17,1.56,0.28,2.35,0.31c0.79,0.03,1.54-0.71,1.5-1.5
					c-0.04-0.84-0.66-1.47-1.5-1.5c-0.35-0.01-0.7-0.04-1.05-0.09c0.13,0.02,0.27,0.04,0.4,0.05c-0.91-0.13-1.79-0.37-2.64-0.72
					c0.12,0.05,0.24,0.1,0.36,0.15c-0.04-0.02-0.09-0.04-0.13-0.06c-0.38-0.17-0.73-0.27-1.16-0.15c-0.35,0.1-0.73,0.36-0.9,0.69
					c-0.18,0.35-0.28,0.77-0.15,1.16C332.6,250.78,332.83,251.18,333.18,251.34L333.18,251.34z"/>
			</g>
		</g>
		<g>
			<g>
				<path class="st9" d="M369.97,267.5c0.66,0.22,1.32,0.44,1.98,0.66c0.2,0.06,0.4,0.07,0.6,0.03c0.2-0.01,0.39-0.07,0.56-0.18
					c0.17-0.09,0.32-0.22,0.42-0.39c0.13-0.14,0.22-0.31,0.27-0.51c0.09-0.38,0.07-0.82-0.15-1.16c-0.08-0.1-0.16-0.2-0.23-0.3
					c-0.19-0.19-0.41-0.31-0.66-0.39c-0.66-0.22-1.32-0.44-1.98-0.66c-0.2-0.06-0.4-0.07-0.6-0.03c-0.2,0.01-0.39,0.07-0.56,0.18
					c-0.17,0.09-0.32,0.22-0.42,0.39c-0.13,0.14-0.22,0.31-0.27,0.51c-0.09,0.38-0.07,0.82,0.15,1.16c0.08,0.1,0.16,0.2,0.23,0.3
					C369.49,267.3,369.71,267.43,369.97,267.5L369.97,267.5z"/>
			</g>
		</g>
		<g>
			<g>
				<path class="st9" d="M359.1,262.76c1.31,0.71,2.41,1.87,3.54,2.83c1.17,1,2.39,1.97,3.43,3.11c0.44,0.48,0.77,1.09,1.25,1.52
					c0.78,0.7,1.88,0.62,2.75,0.14c1.39-0.78,2.55-2.13,3.46-3.42c-0.91-0.12-1.83-0.24-2.74-0.36c0.14,0.48-0.12,0.98-0.59,1.38
					c-0.52,0.44-1.3,0.89-1.96,1.04c0.27,0,0.53,0,0.8,0c0.24,0.2,0.26,0.18,0.03-0.04c-0.05-0.06-0.11-0.12-0.16-0.18
					c-0.19-0.21-0.37-0.41-0.56-0.62c-0.35-0.38-0.69-0.77-1.04-1.15c-0.54-0.6-1.57-0.55-2.12,0c-0.6,0.6-0.55,1.52,0,2.12
					c0.37,0.41,0.75,0.82,1.12,1.24c0.38,0.42,0.75,0.93,1.22,1.24c1.11,0.73,2.37,0.01,3.39-0.55c1.89-1.04,3.43-3.03,2.77-5.28
					c-0.39-1.31-2.01-1.39-2.74-0.36c-0.34,0.48-0.72,0.92-1.14,1.33c-0.23,0.22-0.47,0.44-0.71,0.64c-0.1,0.08-0.61,0.38-0.61,0.42
					c0,0.1,0.96,0.08,0.89,0.24c0.02-0.05-0.28-0.39-0.31-0.43c-0.23-0.3-0.46-0.6-0.71-0.88c-0.42-0.48-0.89-0.93-1.36-1.36
					c-0.99-0.9-2.02-1.74-3.04-2.6c-1.06-0.9-2.1-1.93-3.33-2.6C358.91,259.25,357.4,261.84,359.1,262.76L359.1,262.76z"/>
			</g>
		</g>
		<g>
			<g>
				<path class="st9" d="M374.15,267.85c0.32-1.86,0.74-3.7,1.26-5.52c0.22-0.75-0.26-1.67-1.05-1.85c-0.8-0.18-1.61,0.24-1.85,1.05
					c-0.52,1.81-0.95,3.65-1.26,5.52c-0.07,0.41-0.07,0.79,0.15,1.16c0.18,0.31,0.54,0.61,0.9,0.69
					C373.04,269.06,374.01,268.68,374.15,267.85L374.15,267.85z"/>
			</g>
		</g>
		<g>
			<g>
				<path class="st9" d="M365.45,268.23c1.93,0,1.93-3,0-3C363.52,265.23,363.52,268.23,365.45,268.23L365.45,268.23z"/>
			</g>
		</g>
		<g>
			<g>
				<path class="st9" d="M366.92,266.33c-0.91-2.57-2.62-4.76-4.93-6.23c-0.66-0.42-1.68-0.16-2.05,0.54
					c-0.39,0.74-0.17,1.6,0.54,2.05c0.23,0.15,0.49,0.29,0.69,0.48c-0.08-0.07-0.26-0.2-0.07-0.05c0.05,0.04,0.11,0.09,0.16,0.13
					c0.11,0.09,0.21,0.18,0.32,0.27c0.41,0.38,0.79,0.78,1.15,1.22c0.13,0.16-0.05-0.07-0.08-0.11c0.05,0.06,0.1,0.14,0.15,0.2
					c0.08,0.11,0.16,0.23,0.24,0.34c0.15,0.22,0.29,0.45,0.42,0.68c0.14,0.24,0.26,0.49,0.38,0.74c0.03,0.06,0.06,0.13,0.09,0.19
					c-0.03-0.1-0.13-0.31-0.04-0.09c0.06,0.14,0.11,0.29,0.16,0.43c0.26,0.74,1.04,1.31,1.85,1.05
					C366.6,267.94,367.2,267.12,366.92,266.33L366.92,266.33z"/>
			</g>
		</g>
		<g>
			<g>
				<path class="st9" d="M339.37,221.09c1.68-0.93,3.37-1.87,5.22-2.4c0.89-0.26,1.76-0.38,2.69-0.39c1.14,0,2.25,0.04,3.37-0.23
					c0.79-0.19,1.26-1.08,1.05-1.85c-0.22-0.81-1.05-1.23-1.85-1.05c-1.02,0.24-2.09,0.08-3.13,0.13c-1.06,0.05-2.12,0.24-3.13,0.54
					c-2.02,0.61-3.9,1.63-5.74,2.65C336.17,219.43,337.68,222.03,339.37,221.09L339.37,221.09z"/>
			</g>
		</g>
		<g>
			<g>
				<path class="st9" d="M350.95,218.32c6.85-1.42,13.16,2.71,18.39,6.6c0.66,0.49,1.67,0.1,2.05-0.54
					c0.45-0.76,0.11-1.57-0.54-2.05c-5.98-4.44-12.96-8.5-20.7-6.9C348.26,215.82,349.06,218.72,350.95,218.32L350.95,218.32z"/>
			</g>
		</g>
		<g>
			<g>
				<path class="st9" d="M374.44,267.17c0.09-0.67,0.28-1.32,0.53-1.95c0.04-0.09,0.07-0.19,0.11-0.28c0.08-0.2-0.1,0.23-0.01,0.03
					c0.07-0.15,0.13-0.29,0.2-0.44c0.15-0.33,0.3-0.66,0.45-0.99c0.65-1.42,1.21-2.85,1.22-4.43c0.01-0.78-0.69-1.54-1.5-1.5
					c-0.82,0.04-1.49,0.66-1.5,1.5c0,0.16-0.01,0.31-0.02,0.47c-0.01,0.23,0.04,0,0.01-0.05c0.02,0.04-0.04,0.23-0.05,0.29
					c-0.06,0.31-0.14,0.61-0.24,0.91c-0.05,0.17-0.11,0.34-0.18,0.5c-0.04,0.1-0.2,0.49-0.07,0.19c-0.13,0.31-0.28,0.62-0.42,0.93
					c-0.6,1.29-1.24,2.6-1.44,4.02c-0.06,0.42-0.07,0.78,0.15,1.16c0.18,0.31,0.54,0.61,0.9,0.69
					C373.3,268.38,374.32,268,374.44,267.17L374.44,267.17z"/>
			</g>
		</g>
		<g>
			<g>
				<path class="st9" d="M366.08,266.37c-0.76-2.15-2.71-3.64-4.35-5.13c-1.7-1.54-3.49-3.01-5.46-4.19
					c-0.67-0.4-1.68-0.17-2.05,0.54c-0.38,0.72-0.18,1.62,0.54,2.05c1.81,1.08,3.16,2.19,4.73,3.61c0.74,0.67,1.47,1.35,2.2,2.04
					c0.35,0.33,0.68,0.66,0.99,1.02c0.16,0.19,0-0.01,0.08,0.11c0.07,0.1,0.14,0.2,0.2,0.31c0.05,0.08,0.1,0.17,0.14,0.26
					c0.21,0.38-0.07-0.23,0.08,0.18c0.26,0.74,1.04,1.31,1.85,1.05C365.76,267.98,366.36,267.16,366.08,266.37L366.08,266.37z"/>
			</g>
		</g>
		<g>
			<g>
				<path class="st9" d="M365.45,269.08c1.93,0,1.93-3,0-3C363.52,266.08,363.52,269.08,365.45,269.08L365.45,269.08z"/>
			</g>
		</g>
		<g>
			<g>
				<path class="st9" d="M364.36,268.68c0.77,0.73,1.53,1.47,2.3,2.2c0.28,0.27,0.67,0.44,1.06,0.44c0.37,0,0.81-0.16,1.06-0.44
					c0.26-0.29,0.46-0.66,0.44-1.06c-0.02-0.39-0.15-0.78-0.44-1.06c-0.77-0.73-1.53-1.47-2.3-2.2c-0.28-0.27-0.67-0.44-1.06-0.44
					c-0.37,0-0.81,0.16-1.06,0.44c-0.26,0.29-0.46,0.66-0.44,1.06C363.93,268.01,364.06,268.4,364.36,268.68L364.36,268.68z"/>
			</g>
		</g>
		<g>
			<g>
				<path class="st9" d="M374.5,266.87c0.32-0.77,1-1.57,1.43-2.36c0.48-0.89,0.83-1.86,1.06-2.84c0.46-1.98,0.5-4.02,0.51-6.04
					c0-0.81-0.69-1.5-1.5-1.5c-0.82,0-1.5,0.69-1.5,1.5c-0.01,1.85-0.02,3.68-0.45,5.42c-0.22,0.88-0.48,1.58-0.95,2.35
					c-0.53,0.89-1.09,1.71-1.5,2.67c-0.31,0.75,0.34,1.65,1.05,1.85C373.52,268.16,374.19,267.62,374.5,266.87L374.5,266.87z"/>
			</g>
		</g>
	</g>
	<g id="L">
		<rect x="230.8" y="88.43" class="st0" width="184.18" height="238.95"/>
		<text transform="matrix(1 0 0 1 230.7952 288.9302)" class="st10 st11">L</text>
	</g>
	<g id="Serve">
		<rect x="174.25" y="327.39" class="st0" width="70.79" height="16.28"/>
	</g>
	<g id="s">
		<rect x="278.77" y="172.67" class="st0" width="122.67" height="170.99"/>
		<text transform="matrix(1 0 0 1 278.7664 317.0304)" class="st10 st12">s</text>
		<rect x="279.63" y="204.14" class="st0" width="116.67" height="119.68"/>
	</g>
	<g id="Love_to">
		<rect x="220.91" y="286.65" class="st0" width="61.25" height="18.39"/>
		<text transform="matrix(1 0 0 1 220.9136 298.7827)"><tspan x="0" y="0" class="st1 st2 st13">          </tspan><tspan x="0" y="0.03" class="st1 st2 st13">Love to                 </tspan></text>
	</g>
</g>
</svg>
